<svg width="24" height="24" viewBox="0 0 24 24" fill="none" xmlns="http://www.w3.org/2000/svg">
<path fill-rule="evenodd" clip-rule="evenodd" d="M12 24C18.6274 24 24 18.6274 24 12C24 5.37258 18.6274 0 12 0C5.37258 0 0 5.37258 0 12C0 18.6274 5.37258 24 12 24ZM12 22C17.5228 22 22 17.5228 22 12C22 6.47715 17.5228 2 12 2C6.47715 2 2 6.47715 2 12C2 17.5228 6.47715 22 12 22Z" fill="#2BDE68"/>
<path d="M13.96 6.96V10H17C18.1046 10 19 10.8954 19 12C19 13.1046 18.1046 14 17 14H13.96V17.04C13.96 18.1225 13.0825 19 12 19C10.9175 19 10.04 18.1225 10.04 17.04V14H7C5.89543 14 5 13.1046 5 12C5 10.8954 5.89543 10 7 10H10.04V6.96C10.04 5.87752 10.9175 5 12 5C13.0825 5 13.96 5.87752 13.96 6.96Z" fill="#2BDE68"/>
</svg>
