<svg width="24" height="14" viewBox="0 0 24 14" fill="none" xmlns="http://www.w3.org/2000/svg">
<path d="M24 13.6475L0 13.6474C0 13.6474 0.393466 8.3361 4.13117 5.38526C4.78831 4.86646 5.45153 4.44495 6.09838 4.10256C6.09838 4.10256 4.52461 1.45082 4.13117 0.663931C3.73773 -0.122953 4.72133 -0.122953 4.91805 0.270489C5.11477 0.663931 6.81432 3.75145 6.81432 3.75145C9.53914 2.5179 11.8033 2.63105 11.8033 2.63105C11.8033 2.63105 14.2736 2.4065 17.1783 3.7389C17.1783 3.7389 19.082 0.270492 19.2787 0.0737704C19.4754 -0.122951 20.2623 0.0737704 19.8689 0.663934C19.4754 1.2541 17.9016 4.09968 17.9016 4.09968C18.6169 4.48607 19.3478 4.97177 20.0656 5.58187C24 8.92608 24 13.6475 24 13.6475Z" fill="#3DDD85"/>
<path d="M6.49185 10.1065C6.49185 10.1065 5.50824 10.1065 5.50824 9.12289C5.50824 8.13928 6.49185 8.13928 6.49185 8.13928C6.49185 8.13928 7.47545 8.13928 7.47545 9.12289C7.47545 10.1065 6.49185 10.1065 6.49185 10.1065Z" fill="white"/>
<path d="M17.5082 10.1065C17.5082 10.1065 16.5246 10.1065 16.5246 9.12289C16.5246 8.13928 17.5082 8.13928 17.5082 8.13928C17.5082 8.13928 18.4918 8.13928 18.4918 9.12289C18.4918 10.1065 17.5082 10.1065 17.5082 10.1065Z" fill="white"/>
</svg>
