<svg width="314" height="251" viewBox="0 0 314 251" fill="none" xmlns="http://www.w3.org/2000/svg">
<path d="M119.5 81.0005V185.5C119.5 194.999 117.5 195 129 195H188C201 195 198.5 195 198.5 182.001V81.0005H263.5C267.5 81.0005 268 68.0005 263.5 65.0005C263.5 65.0005 168.5 5.50004 165 3.50051C161.5 1.50099 159 -1.99949 152 3.50051C145 9.00051 58 61.5005 52 65.0005C45.9999 68.5005 46.9999 81.0005 52 81.0005H119.5Z" fill="#3E3B47"/>
<path d="M313.025 251L0 251C0 251 5.13187 181.725 53.8816 143.238C62.4525 136.472 71.1027 130.974 79.5394 126.508C79.5394 126.508 59.0132 91.9226 53.8816 81.6595C48.7501 71.3964 61.5789 71.3964 64.1447 76.5279C66.7105 81.6595 88.8772 121.929 88.8772 121.929C124.416 105.84 153.947 107.316 153.947 107.316C153.947 107.316 186.167 104.387 224.052 121.765C224.052 121.765 248.881 76.5279 251.446 73.9622C254.012 71.3964 264.275 73.9622 259.144 81.6595C254.012 89.3568 233.486 126.471 233.486 126.471C242.815 131.51 252.348 137.845 261.709 145.803C313.025 189.42 313.025 251 313.025 251Z" fill="#3DDD85"/>
<path d="M84.6712 204.816C84.6712 204.816 71.8423 204.816 71.8423 191.987C71.8423 179.158 84.6712 179.158 84.6712 179.158C84.6712 179.158 97.5001 179.158 97.5001 191.987C97.5001 204.816 84.6712 204.816 84.6712 204.816Z" fill="white"/>
<path d="M228.355 204.816C228.355 204.816 215.526 204.816 215.526 191.987C215.526 179.158 228.355 179.158 228.355 179.158C228.355 179.158 241.184 179.158 241.184 191.987C241.184 204.816 228.355 204.816 228.355 204.816Z" fill="white"/>
<path d="M126.42 196.18C125.94 196.18 125.544 196.024 125.232 195.712C124.944 195.4 124.8 195.016 124.8 194.56C124.8 194.368 124.86 194.128 124.98 193.84L134.16 172.168C134.352 171.736 134.616 171.388 134.952 171.124C135.312 170.836 135.744 170.692 136.248 170.692H136.608C137.112 170.692 137.532 170.836 137.868 171.124C138.228 171.388 138.504 171.736 138.696 172.168L147.876 193.84C147.996 194.128 148.056 194.368 148.056 194.56C148.056 195.016 147.9 195.4 147.588 195.712C147.3 196.024 146.916 196.18 146.436 196.18C146.1 196.18 145.788 196.096 145.5 195.928C145.236 195.736 145.032 195.484 144.888 195.172L142.548 189.556H130.308L127.968 195.172C127.824 195.484 127.608 195.736 127.32 195.928C127.056 196.096 126.756 196.18 126.42 196.18ZM131.568 186.568H141.288L136.428 174.868L131.568 186.568ZM154.971 196.18C154.515 196.18 154.131 196.024 153.819 195.712C153.507 195.4 153.351 195.016 153.351 194.56V172.528C153.351 172.072 153.507 171.688 153.819 171.376C154.131 171.04 154.515 170.872 154.971 170.872H163.179C165.459 170.872 167.319 171.256 168.759 172.024C170.199 172.792 171.231 173.776 171.855 174.976C172.479 176.176 172.791 177.472 172.791 178.864C172.791 180.256 172.479 181.552 171.855 182.752C171.231 183.952 170.199 184.936 168.759 185.704C167.319 186.472 165.459 186.856 163.179 186.856H156.627V194.56C156.627 195.016 156.459 195.4 156.123 195.712C155.811 196.024 155.427 196.18 154.971 196.18ZM162.855 183.76C165.303 183.76 167.019 183.292 168.003 182.356C169.011 181.42 169.515 180.256 169.515 178.864C169.515 177.472 169.011 176.308 168.003 175.372C167.019 174.436 165.303 173.968 162.855 173.968H156.627V183.76H162.855ZM179.159 196.18C178.703 196.18 178.319 196.024 178.007 195.712C177.695 195.4 177.539 195.016 177.539 194.56V172.348C177.539 171.892 177.695 171.508 178.007 171.196C178.319 170.86 178.703 170.692 179.159 170.692C179.615 170.692 179.999 170.86 180.311 171.196C180.647 171.508 180.815 171.892 180.815 172.348V183.796L193.127 171.268C193.463 170.884 193.871 170.692 194.351 170.692C194.759 170.692 195.107 170.836 195.395 171.124C195.707 171.388 195.863 171.724 195.863 172.132C195.863 172.612 195.731 172.984 195.467 173.248L187.151 181.528L196.691 193.552C196.955 193.888 197.087 194.236 197.087 194.596C197.111 195.028 196.967 195.4 196.655 195.712C196.343 196.024 195.959 196.18 195.503 196.18C194.951 196.18 194.519 195.964 194.207 195.532L184.919 183.688L180.815 187.828V194.56C180.815 195.016 180.647 195.4 180.311 195.712C179.999 196.024 179.615 196.18 179.159 196.18Z" fill="black" fill-opacity="0.25"/>
</svg>
