<svg width="47" height="27" viewBox="0 0 47 27" fill="none" xmlns="http://www.w3.org/2000/svg">
<path d="M35.9444 9.61111L36.3333 8.85714L36.4682 9.23699L36.7222 9.57143L35.9444 9.61111Z" fill="#FF9000"/>
<path d="M41 6L36.4682 9.23699M34 11L35.9444 9.61111M35.9444 9.61111L36.3333 8.85714L36.4682 9.23699M35.9444 9.61111L36.4682 9.23699M35.9444 9.61111L36.7222 9.57143L36.4682 9.23699" stroke="#FF9000" stroke-width="0.2"/>
<path d="M7 15.0727L9 14.5818L8.33333 16.0545V15.0727H7Z" fill="#FF9000"/>
<path d="M3 19L8.33333 15.0727M11 13L9 14.5818M9 14.5818L7 15.0727H8.33333M9 14.5818L8.33333 15.0727M9 14.5818L8.33333 16.0545V15.0727" stroke="#FF9000" stroke-width="0.2"/>
<path d="M24.6035 12.5L23 13L23.5 12.5L23 12L24.6035 12.5Z" fill="#FF9000"/>
<path d="M14.5 12.5H23.5M27.5 12.5H24.6035M24.6035 12.5L23 13L23.5 12.5M24.6035 12.5H23.5M24.6035 12.5L23 12L23.5 12.5" stroke="#FF9000" stroke-width="0.2"/>
<rect y="15" width="4" height="8.47059" rx="0.4" fill="#312E38"/>
<path d="M0.235229 15.6352C0.235229 15.4143 0.414316 15.2352 0.63523 15.2352H3.36464C3.58555 15.2352 3.76464 15.4143 3.76464 15.6352V22.3646C3.76464 22.5856 3.58556 22.7646 3.36464 22.7646H0.63523C0.414316 22.7646 0.235229 22.5856 0.235229 22.3646V15.6352Z" fill="white"/>
<path d="M2.00006 15.5176C1.84955 15.4979 1.78826 15.4464 1.76477 15.2352H2.23536C2.2142 15.4413 2.1587 15.4991 2.00006 15.5176Z" fill="#312E38"/>
<circle cx="1.99997" cy="15.3529" r="0.117647" fill="white"/>
<rect x="0.705933" y="23" width="0.235294" height="0.235294" fill="white"/>
<circle cx="1.99997" cy="23.1176" r="0.117647" fill="white"/>
<path d="M3.05964 23.1193L3.23542 23.0162L3.23679 23.22L3.05964 23.1193Z" fill="white"/>
<path d="M40 8.6V2.7L43.3 1H46V6.5L43 8.6H40Z" fill="#312E38"/>
<path d="M40 2.7V8.6H43M40 2.7H43M40 2.7L43.3 1H46M43 8.6V2.7M43 8.6L46 6.5V1M43 2.7L46 1" stroke="white" stroke-width="0.2"/>
<path d="M40.7 7.70005V7.50005H42.3V7.70005H40.7Z" fill="white"/>
<path d="M42.5 3.70005H40.5V3.30005H42.5V3.70005Z" fill="white"/>
<path d="M43.3605 7.29998C42.2831 7.71439 39.8152 7.0727 40.5076 6.23634C41.2001 5.39998 40.2001 3.39998 40.2001 3.39998C40.2766 3.05668 40.4787 3.0156 40.9001 2.99998C42.5633 3.2075 43.2806 3.25516 43.5001 2.99998C44.2273 2.28641 44.6993 2.13665 45.6001 2.09998V5.89998C44.9515 6.59392 44.4378 6.88556 43.3605 7.29998Z" fill="#0073C6" fill-opacity="0.26"/>
<path d="M9 14.3457L11.037 10H18.9136L20 11.0864L18.642 15.4321H10.2222L9 14.3457Z" fill="#312E38"/>
<path d="M9 14.3457L11.037 10H18.9136M9 14.3457H17.5556M9 14.3457L10.2222 15.4321H18.642M17.5556 14.3457L18.9136 10M17.5556 14.3457L18.642 15.4321M18.9136 10L20 11.0864L18.642 15.4321" stroke="white" stroke-width="0.2"/>
<path d="M11.9877 11.4938H13.0741V11.2222V10.9506H11.9877V10.5432L11.4445 11.2222L11.9877 11.9012V11.4938Z" fill="#FF9000"/>
<path d="M11.4444 13.3951H12.5308V13.1235V12.8519H11.4444V12.4445L10.7654 13.1235L11.4444 13.8025V13.3951Z" fill="#FF9000"/>
<path d="M12.5309 12.8518L13.6453 12.1089L13.0741 11.4938V10.9506L13.9568 11.9012L15.3827 10.9506V11.4938L14.2684 12.2367L14.8395 12.8518V13.395L13.9568 12.4444L12.5309 13.395V12.8518Z" fill="#FF9000"/>
<path d="M16.4749 10.9599L15.3827 10.9507L15.3823 11.2222L15.3799 11.4938L16.4702 11.5031L16.4667 11.9105L17.1482 11.2222L16.4783 10.5525L16.4749 10.9599Z" fill="#FF9000"/>
<path d="M15.9069 12.8546L14.8395 12.8519L14.8395 13.1235L14.8395 13.3951L15.9055 13.3978L15.9045 13.8052L16.5697 13.1234L15.908 12.4472L15.9069 12.8546Z" fill="#FF9000"/>
<path d="M25 14.3457L27.037 10H34.9136L36 11.0864L34.642 15.4321H26.2222L25 14.3457Z" fill="#312E38"/>
<path d="M25 14.3457L27.037 10H34.9136M25 14.3457H33.5556M25 14.3457L26.2222 15.4321H34.642M33.5556 14.3457L34.9136 10M33.5556 14.3457L34.642 15.4321M34.9136 10L36 11.0864L34.642 15.4321" stroke="white" stroke-width="0.2"/>
<path d="M27.9877 11.4938H29.0741V11.2222V10.9506H27.9877V10.5432L27.4445 11.2222L27.9877 11.9012V11.4938Z" fill="#FF9000"/>
<path d="M27.4444 13.3951H28.5308V13.1235V12.8519H27.4444V12.4445L26.7654 13.1235L27.4444 13.8025V13.3951Z" fill="#FF9000"/>
<path d="M28.5309 12.8518L29.6453 12.1089L29.0741 11.4938V10.9506L29.9568 11.9012L31.3827 10.9506V11.4938L30.2684 12.2367L30.8395 12.8518V13.395L29.9568 12.4444L28.5309 13.395V12.8518Z" fill="#FF9000"/>
<path d="M32.4749 10.9599L31.3827 10.9507L31.3823 11.2222L31.3799 11.4938L32.4702 11.5031L32.4667 11.9105L33.1482 11.2222L32.4783 10.5525L32.4749 10.9599Z" fill="#FF9000"/>
<path d="M31.9069 12.8546L30.8395 12.8519L30.8395 13.1235L30.8395 13.3951L31.9055 13.3978L31.9045 13.8052L32.5697 13.1234L31.908 12.4472L31.9069 12.8546Z" fill="#FF9000"/>
<path d="M9.86426 17.627C9.86426 17.5716 9.84473 17.5293 9.80566 17.5C9.7666 17.4701 9.69629 17.4388 9.59473 17.4062C9.49316 17.373 9.41276 17.3405 9.35352 17.3086C9.19206 17.2214 9.11133 17.1038 9.11133 16.9561C9.11133 16.8792 9.13281 16.8109 9.17578 16.751C9.2194 16.6904 9.28158 16.6432 9.3623 16.6094C9.44368 16.5755 9.53483 16.5586 9.63574 16.5586C9.7373 16.5586 9.8278 16.5771 9.90723 16.6143C9.98665 16.6507 10.0482 16.7025 10.0918 16.7695C10.1361 16.8366 10.1582 16.9128 10.1582 16.998H9.86523C9.86523 16.9329 9.84473 16.8825 9.80371 16.8467C9.7627 16.8102 9.70508 16.792 9.63086 16.792C9.55924 16.792 9.50358 16.8073 9.46387 16.8379C9.42415 16.8678 9.4043 16.9076 9.4043 16.957C9.4043 17.0033 9.42741 17.042 9.47363 17.0732C9.52051 17.1045 9.58919 17.1338 9.67969 17.1611C9.84635 17.2113 9.96777 17.2734 10.0439 17.3477C10.1201 17.4219 10.1582 17.5143 10.1582 17.625C10.1582 17.748 10.1117 17.8447 10.0186 17.915C9.92546 17.9847 9.80013 18.0195 9.64258 18.0195C9.5332 18.0195 9.43359 17.9997 9.34375 17.96C9.25391 17.9196 9.18522 17.8646 9.1377 17.7949C9.09082 17.7253 9.06738 17.6445 9.06738 17.5527H9.36133C9.36133 17.7096 9.45508 17.7881 9.64258 17.7881C9.71224 17.7881 9.7666 17.7741 9.80566 17.7461C9.84473 17.7174 9.86426 17.6777 9.86426 17.627ZM11.3018 18H10.3271V17.8066L10.7871 17.3164C10.8503 17.2474 10.8968 17.1872 10.9268 17.1357C10.9574 17.0843 10.9727 17.0355 10.9727 16.9893C10.9727 16.9261 10.9567 16.8766 10.9248 16.8408C10.8929 16.8044 10.8473 16.7861 10.7881 16.7861C10.7243 16.7861 10.6738 16.8083 10.6367 16.8525C10.6003 16.8962 10.582 16.9538 10.582 17.0254H10.2988C10.2988 16.9388 10.3193 16.8597 10.3604 16.7881C10.402 16.7165 10.4606 16.6605 10.5361 16.6201C10.6117 16.5791 10.6973 16.5586 10.793 16.5586C10.9395 16.5586 11.0531 16.5938 11.1338 16.6641C11.2152 16.7344 11.2559 16.8337 11.2559 16.9619C11.2559 17.0322 11.2376 17.1038 11.2012 17.1768C11.1647 17.2497 11.1022 17.3346 11.0137 17.4316L10.6904 17.7725H11.3018V18Z" fill="white"/>
<path d="M2.24316 25.5264C2.2321 25.6794 2.17546 25.7998 2.07324 25.8877C1.97168 25.9756 1.83757 26.0195 1.6709 26.0195C1.48861 26.0195 1.34505 25.9583 1.24023 25.8359C1.13607 25.7129 1.08398 25.5443 1.08398 25.3301V25.2432C1.08398 25.1064 1.10807 24.986 1.15625 24.8818C1.20443 24.7777 1.27311 24.6979 1.3623 24.6426C1.45215 24.5866 1.55632 24.5586 1.6748 24.5586C1.83887 24.5586 1.97103 24.6025 2.07129 24.6904C2.17155 24.7783 2.22949 24.9017 2.24512 25.0605H1.95215C1.94499 24.9688 1.91927 24.9023 1.875 24.8613C1.83138 24.8197 1.76465 24.7988 1.6748 24.7988C1.57715 24.7988 1.50391 24.834 1.45508 24.9043C1.4069 24.974 1.38216 25.0824 1.38086 25.2295V25.3369C1.38086 25.4906 1.40397 25.6029 1.4502 25.6738C1.49707 25.7448 1.57064 25.7803 1.6709 25.7803C1.76139 25.7803 1.82878 25.7598 1.87305 25.7188C1.91797 25.6771 1.94368 25.613 1.9502 25.5264H2.24316ZM3.09082 26H2.80859V24.9121L2.47168 25.0166V24.7871L3.06055 24.5762H3.09082V26Z" fill="white"/>
<path d="M40.8643 11.627C40.8643 11.5716 40.8447 11.5293 40.8057 11.5C40.7666 11.4701 40.6963 11.4388 40.5947 11.4062C40.4932 11.373 40.4128 11.3405 40.3535 11.3086C40.1921 11.2214 40.1113 11.1038 40.1113 10.9561C40.1113 10.8792 40.1328 10.8109 40.1758 10.751C40.2194 10.6904 40.2816 10.6432 40.3623 10.6094C40.4437 10.5755 40.5348 10.5586 40.6357 10.5586C40.7373 10.5586 40.8278 10.5771 40.9072 10.6143C40.9867 10.6507 41.0482 10.7025 41.0918 10.7695C41.1361 10.8366 41.1582 10.9128 41.1582 10.998H40.8652C40.8652 10.9329 40.8447 10.8825 40.8037 10.8467C40.7627 10.8102 40.7051 10.792 40.6309 10.792C40.5592 10.792 40.5036 10.8073 40.4639 10.8379C40.4242 10.8678 40.4043 10.9076 40.4043 10.957C40.4043 11.0033 40.4274 11.042 40.4736 11.0732C40.5205 11.1045 40.5892 11.1338 40.6797 11.1611C40.8464 11.2113 40.9678 11.2734 41.0439 11.3477C41.1201 11.4219 41.1582 11.5143 41.1582 11.625C41.1582 11.748 41.1117 11.8447 41.0186 11.915C40.9255 11.9847 40.8001 12.0195 40.6426 12.0195C40.5332 12.0195 40.4336 11.9997 40.3438 11.96C40.2539 11.9196 40.1852 11.8646 40.1377 11.7949C40.0908 11.7253 40.0674 11.6445 40.0674 11.5527H40.3613C40.3613 11.7096 40.4551 11.7881 40.6426 11.7881C40.7122 11.7881 40.7666 11.7741 40.8057 11.7461C40.8447 11.7174 40.8643 11.6777 40.8643 11.627ZM42.2129 11.3838H41.6504V11.7646H42.3105V12H41.3574V10.5781H42.3086V10.8154H41.6504V11.1543H42.2129V11.3838ZM43.0088 11.4795H42.7754V12H42.4824V10.5781H43.0107C43.1787 10.5781 43.3083 10.6156 43.3994 10.6904C43.4906 10.7653 43.5361 10.8711 43.5361 11.0078C43.5361 11.1048 43.515 11.1859 43.4727 11.251C43.431 11.3154 43.3675 11.3669 43.2822 11.4053L43.5898 11.9863V12H43.2754L43.0088 11.4795ZM42.7754 11.2422H43.0117C43.0853 11.2422 43.1423 11.2236 43.1826 11.1865C43.223 11.1488 43.2432 11.097 43.2432 11.0312C43.2432 10.9642 43.224 10.9115 43.1855 10.873C43.1478 10.8346 43.0895 10.8154 43.0107 10.8154H42.7754V11.2422ZM44.2656 11.6475L44.5879 10.5781H44.9141L44.4189 12H44.1133L43.6201 10.5781H43.9453L44.2656 11.6475ZM45.7041 12H45.4219V10.9121L45.085 11.0166V10.7871L45.6738 10.5762H45.7041V12Z" fill="white"/>
<path d="M29.8643 17.627C29.8643 17.5716 29.8447 17.5293 29.8057 17.5C29.7666 17.4701 29.6963 17.4388 29.5947 17.4062C29.4932 17.373 29.4128 17.3405 29.3535 17.3086C29.1921 17.2214 29.1113 17.1038 29.1113 16.9561C29.1113 16.8792 29.1328 16.8109 29.1758 16.751C29.2194 16.6904 29.2816 16.6432 29.3623 16.6094C29.4437 16.5755 29.5348 16.5586 29.6357 16.5586C29.7373 16.5586 29.8278 16.5771 29.9072 16.6143C29.9867 16.6507 30.0482 16.7025 30.0918 16.7695C30.1361 16.8366 30.1582 16.9128 30.1582 16.998H29.8652C29.8652 16.9329 29.8447 16.8825 29.8037 16.8467C29.7627 16.8102 29.7051 16.792 29.6309 16.792C29.5592 16.792 29.5036 16.8073 29.4639 16.8379C29.4242 16.8678 29.4043 16.9076 29.4043 16.957C29.4043 17.0033 29.4274 17.042 29.4736 17.0732C29.5205 17.1045 29.5892 17.1338 29.6797 17.1611C29.8464 17.2113 29.9678 17.2734 30.0439 17.3477C30.1201 17.4219 30.1582 17.5143 30.1582 17.625C30.1582 17.748 30.1117 17.8447 30.0186 17.915C29.9255 17.9847 29.8001 18.0195 29.6426 18.0195C29.5332 18.0195 29.4336 17.9997 29.3438 17.96C29.2539 17.9196 29.1852 17.8646 29.1377 17.7949C29.0908 17.7253 29.0674 17.6445 29.0674 17.5527H29.3613C29.3613 17.7096 29.4551 17.7881 29.6426 17.7881C29.7122 17.7881 29.7666 17.7741 29.8057 17.7461C29.8447 17.7174 29.8643 17.6777 29.8643 17.627ZM31.0127 18H30.7305V16.9121L30.3936 17.0166V16.7871L30.9824 16.5762H31.0127V18Z" fill="white"/>
</svg>
