<svg width="36" height="48" viewBox="0 0 36 48" fill="none" xmlns="http://www.w3.org/2000/svg">
<path d="M1 46V11L20.5 1H35.5V33.5L16 46H1Z" fill="#312E38"/>
<path d="M1 11V46H16M1 11C6.85786 11 10.1421 11 16 11M1 11L20.5 1C26.3579 1 29.6421 1 35.5 1M16 46V11M16 46L35.5 33.5V1M16 11L35.5 1" stroke="white"/>
<path d="M5 39.5V38.5H13V39.5H5Z" fill="white"/>
<path d="M14 19.5H4V17.5H14V19.5Z" fill="white"/>
<path d="M18.7797 37.2875C13.3017 39.034 -0.503944 37.4407 3.017 33.9158C6.53795 30.3909 2 18.3219 2 18.3219C2.38934 16.875 3.92507 15.016 6.06785 14.9502C14.5252 15.8248 17.6635 17.2901 18.7797 16.2146C22.4776 13.2072 27.4196 12.1546 32 12V29.2798C28.7022 32.2045 24.2577 35.5409 18.7797 37.2875Z" fill="#0073C6" fill-opacity="0.26"/>
<circle cx="14.1321" cy="39.6857" r="6.00879" fill="#3E3B47"/>
<path d="M19.4673 36.7614C19.795 37.4167 20.1226 38.0721 20.1396 39.6593C20.1403 39.7251 20.078 39.7733 20.0145 39.7563L18.2476 39.2833C18.2093 39.2731 18.1805 39.24 18.1744 39.2008C17.9026 37.4448 17.8014 37.2406 17.4858 36.7614C16.9389 35.931 16.0024 35.3818 14.4963 35.3548C14.4409 35.3538 14.3956 35.3987 14.3956 35.454L14.3956 36.5154C14.3956 36.6146 14.2668 36.6532 14.2122 36.5705L12.783 34.4059C12.7565 34.3658 12.7623 34.3124 12.797 34.2789L14.5507 32.5853C14.6188 32.5196 14.7316 32.5763 14.7194 32.6701L14.5913 33.6532C14.5833 33.7149 14.6319 33.7688 14.6941 33.7687C15.6305 33.7661 17.8571 34.1851 19.4673 36.7614Z" fill="#FFA32D"/>
<path d="M15.1381 45.5592C14.4111 45.8252 12.5547 45.6982 11.4305 45.0517C11.3797 45.0225 11.3674 44.9555 11.4026 44.9087L12.5445 43.386C12.5737 43.3472 12.6274 43.3354 12.6708 43.357C14.1081 44.0733 14.4254 43.8756 15.2254 43.7467C16.145 43.5985 16.7604 43.1968 17.8342 41.8698C17.8718 41.8233 17.8605 41.7539 17.8097 41.7222L16.6929 41.024C16.6146 40.975 16.6389 40.8551 16.7301 40.8404L19.3567 40.4192C19.4042 40.4116 19.4505 40.4389 19.4667 40.4843L20.3094 42.8409C20.3383 42.9219 20.2583 42.9992 20.1784 42.9675L19.4013 42.6594C19.3477 42.6382 19.2869 42.6664 19.264 42.7193C19.0066 43.3155 17.7764 45.2858 15.1634 45.5534C15.1547 45.5543 15.1463 45.5562 15.1381 45.5592Z" fill="#FFA32D"/>
<path d="M8.6608 37.1732C8.99497 36.5204 9.26877 35.8277 10.5372 34.8704C10.5886 34.8316 10.6629 34.8515 10.6882 34.9107L11.4443 36.6749C11.4633 36.7191 11.4471 36.7711 11.4074 36.7983C10.0801 37.7073 10.1658 38.2828 10.0796 38.8473C9.9386 39.7717 9.72239 40.6277 10.5911 41.8555C10.6183 41.8939 10.6693 41.9079 10.7123 41.8888L11.6745 41.4612C11.7561 41.4249 11.8406 41.5056 11.8083 41.5888L10.9458 43.8067C10.9294 43.8487 10.8869 43.8746 10.842 43.8698L8.24266 43.5936C8.14542 43.5833 8.11928 43.4539 8.20489 43.4067L9.045 42.9428C9.09943 42.9127 9.11409 42.8416 9.07712 42.7916C8.52041 42.0387 7.53896 39.9966 8.6608 37.1732Z" fill="#FFA32D"/>
</svg>
