<svg width="26" height="26" viewBox="0 0 26 26" fill="none" xmlns="http://www.w3.org/2000/svg">
<path d="M1 24V2C1 1.44772 1.44772 1 2 1H5H20.0303H20.5608C20.8407 1 21.1078 1.11729 21.2972 1.32337L24.7363 5.066C24.9059 5.25054 25 5.49202 25 5.74263V24C25 24.5523 24.5523 25 24 25H22.2121H4.15152H2C1.44772 25 1 24.5523 1 24Z" fill="#407094" stroke="black"/>
<path d="M4 24.5V15.5C4 15.2239 4.22386 15 4.5 15H21.5C21.7761 15 22 15.2239 22 15.5V24.5C22 24.7761 21.7761 25 21.5 25H4.5C4.22386 25 4 24.7761 4 24.5Z" fill="white"/>
<path d="M6.7871 17.3585H18.7484M6.7871 19.8113H18.7484M6.7871 22.0755H18.7484M22 15.5V24.5C22 24.7761 21.7761 25 21.5 25H4.5C4.22386 25 4 24.7761 4 24.5V15.5C4 15.2239 4.22386 15 4.5 15H21.5C21.7761 15 22 15.2239 22 15.5Z" stroke="black"/>
<path d="M5 10.5V1.5C5 1.22386 5.22386 1 5.5 1H18.5C18.7761 1 19 1.22386 19 1.5V10.5C19 10.7761 18.7761 11 18.5 11H5.5C5.22386 11 5 10.7761 5 10.5Z" fill="#C4C4C4" stroke="black"/>
</svg>
