<svg width="36" height="46" viewBox="0 0 36 46" fill="none" xmlns="http://www.w3.org/2000/svg">
<path d="M1 45.5V10.5L20.5 0.5H35.5V33L16 45.5H1Z" fill="#312E38"/>
<path d="M1 10.5V45.5H16M1 10.5C6.85786 10.5 10.1421 10.5 16 10.5M1 10.5L20.5 0.5C26.3579 0.5 29.6421 0.5 35.5 0.5M16 45.5V10.5M16 45.5L35.5 33V0.5M16 10.5L35.5 0.5" stroke="white"/>
<path d="M5 39V38H13V39H5Z" fill="white"/>
<path d="M14 19H4V17H14V19Z" fill="white"/>
<path d="M18.7797 36.2875C13.3017 38.034 -0.503944 36.4407 3.017 32.9158C6.53795 29.3909 2 17.3219 2 17.3219C2.38934 15.875 3.92507 14.016 6.06785 13.9502C14.5252 14.8248 17.6635 16.2901 18.7797 15.2146C22.4776 12.2072 27.4196 11.1546 32 11V28.2798C28.7022 31.2045 24.2577 34.5409 18.7797 36.2875Z" fill="#0073C6" fill-opacity="0.26"/>
</svg>
