<svg width="31" height="39" viewBox="0 0 31 39" fill="none" xmlns="http://www.w3.org/2000/svg">
<path d="M0.5 38.5V9L17 0.5H30.5V28L15.5 38.5H0.5Z" fill="#312E38"/>
<path d="M0.5 9V38.5H15.5M0.5 9H15.5M0.5 9L17 0.5H30.5M15.5 38.5V9M15.5 38.5L30.5 28V0.5M15.5 9L30.5 0.5" stroke="white"/>
<path d="M4 34V33H12V34H4Z" fill="white"/>
<path d="M13 14H3V12H13V14Z" fill="white"/>
<path d="M17.3019 32C11.9152 34.0721 -0.424528 30.8636 3.03774 26.6818C6.5 22.5 1.5 12.5 1.5 12.5C1.88285 10.7835 2.89293 10.5781 5 10.5C13.3164 11.5376 16.9024 11.7759 18 10.5C21.6363 6.93218 23.9959 6.18338 28.5 6V25C25.2572 28.4697 22.6886 29.9279 17.3019 32Z" fill="#0073C6" fill-opacity="0.26"/>
</svg>
