<svg width="42" height="22" viewBox="0 0 42 22" fill="none" xmlns="http://www.w3.org/2000/svg">
<path d="M0.5 17L8 1H37L41 5L36 21H5L0.5 17Z" fill="#312E38"/>
<path d="M0.5 17L8 1H37M0.5 17H32M0.5 17L5 21H36M32 17L37 1M32 17L36 21M37 1L41 5L36 21" stroke="white" stroke-width="0.5"/>
<path d="M11.5 6.5H15.5V5.5V4.5H11.5V3L9.5 5.5L11.5 8V6.5Z" fill="white"/>
<path d="M9.5 13.5H13.5V12.5V11.5H9.5V10L7 12.5L9.5 15V13.5Z" fill="white"/>
<path d="M13.5 11.5L17.6029 8.76471L15.5 6.5V4.5L18.75 8L24 4.5V6.5L19.8971 9.23529L22 11.5V13.5L18.75 10L13.5 13.5V11.5Z" fill="white"/>
<path d="M28.0211 4.53401L24 4.5L23.9984 5.49962L23.9898 6.49958L28.004 6.53394L27.9911 8.03389L30.5 5.49986L28.0339 3.03407L28.0211 4.53401Z" fill="white"/>
<path d="M25.9302 11.51L22 11.5L22 12.5L22 13.5L25.9251 13.51L25.9213 15.01L28.3705 12.4998L25.934 10.01L25.9302 11.51Z" fill="white"/>
</svg>
